<svg width="46" height="47" viewBox="0 0 46 47" fill="none" xmlns="http://www.w3.org/2000/svg">
<g clip-path="url(#clip0)">
<path d="M23 0.922363C10.8054 0.922363 0.919983 10.8078 0.919983 23.0024C0.919983 35.197 10.8054 45.0824 23 45.0824C35.1946 45.0824 45.08 35.197 45.08 23.0024C45.08 10.8078 35.1946 0.922363 23 0.922363ZM28.2302 16.1806H24.9113C24.518 16.1806 24.081 16.6981 24.081 17.3858V19.7824H28.2325L27.6046 23.2002H24.081V33.4605H20.1641V23.2002H16.6106V19.7824H20.1641V17.7722C20.1641 14.888 22.1651 12.5443 24.9113 12.5443H28.2302V16.1806Z" fill="white"/>
</g>
<defs>
<clipPath id="clip0">
<rect width="46" height="46" fill="white" transform="translate(0 0.00244141)"/>
</clipPath>
</defs>
</svg>
