<svg width="20" height="21" viewBox="0 0 20 21" fill="none" xmlns="http://www.w3.org/2000/svg">
<g clip-path="url(#clip0)">
<path d="M12.8381 0.113022C12.2062 0.0605218 11.6081 0.188022 11.0225 0.503647C10.2375 0.920522 9.68061 1.56427 9.42686 2.40115V2.45615L9.39748 2.65552L9.28748 2.45615L9.00748 1.95552C8.56061 1.25865 8.00436 0.838647 7.30498 0.643647C6.69248 0.506147 6.18811 0.561772 5.65748 0.845522C5.07186 1.20615 4.73686 1.76615 4.59686 2.54802C4.45686 3.35802 4.59686 4.1399 5.01686 4.92052L5.21186 5.20052L4.53748 4.9799C3.70061 4.78052 2.91998 4.89177 2.13498 5.31177C1.32811 5.72865 0.823109 6.31427 0.491859 7.12865C0.182484 7.90927 0.211859 8.66552 0.602484 9.36115C0.768109 9.67115 1.02248 9.91802 1.24311 10.088C1.57873 10.423 1.99811 10.618 2.49998 10.703L2.69498 10.7549L2.27811 11.123C1.88498 11.4549 1.66311 11.8749 1.52311 12.2911C1.45093 12.5379 1.43099 12.7971 1.46457 13.052C1.49814 13.3069 1.58449 13.5521 1.71811 13.7718C1.86123 13.9968 1.99811 14.1918 2.21998 14.3318C2.44498 14.5274 2.72498 14.6674 3.05998 14.6968C3.70636 14.8496 4.38246 14.8202 5.01311 14.6118L4.51123 15.4486L4.37123 15.8136C4.09123 16.7086 4.17623 17.4861 4.59623 18.2968C4.79123 18.6061 5.01311 18.8861 5.23686 19.1368C5.56936 19.4424 5.99186 19.6374 6.49686 19.7774C7.33373 20.0024 8.16998 19.9768 8.97686 19.5568C9.76186 19.1368 10.2625 18.4624 10.5169 17.6261L10.5425 17.4605C11.0731 18.0461 11.575 18.4374 12.1344 18.5774C12.6944 18.7468 13.2512 18.7205 13.7562 18.3824C14.2312 18.1055 14.5662 17.6268 14.7362 17.0405C14.8762 16.4255 14.8762 15.8136 14.7362 15.1136C15.0131 15.3086 15.2931 15.4486 15.6281 15.5336C16.5231 15.8136 17.305 15.7843 18.0856 15.368C18.8406 14.948 19.3425 14.2774 19.5962 13.4111C19.8169 12.5743 19.7619 11.7636 19.3456 10.9793L19.2025 10.7543C18.9806 10.4193 18.7569 10.0843 18.4206 9.8624C18.1412 9.6674 17.8056 9.5274 17.5 9.3874C18.3656 8.9674 18.9806 8.38177 19.2575 7.62552C19.4569 7.01052 19.4006 6.5099 19.1175 6.0049V5.9499C18.7825 5.39302 18.34 5.02802 17.64 4.83302C17.22 4.75115 16.7481 4.74802 16.3281 4.7774L15.4031 4.97302L15.7125 4.27615C15.9925 3.38115 15.9081 2.51552 15.4331 1.70427L15.3512 1.56115C14.9312 0.864272 14.3162 0.444272 13.4794 0.223647C13.2691 0.16794 13.0543 0.130921 12.8375 0.113022H12.8381ZM12.3631 1.29177C12.6331 1.26615 12.9031 1.30177 13.1706 1.39927C13.7562 1.53927 14.1762 1.8449 14.4262 2.3199V2.32302C14.5662 2.5999 14.6481 2.93552 14.6481 3.2999L14.5662 3.9149C14.4562 4.22052 14.3162 4.50052 14.1469 4.75177L11.6337 7.8249C11.3831 7.62927 11.1031 7.48927 10.8231 7.34927L10.5431 4.19177L10.5175 3.07615L10.5431 2.79615C10.6831 2.23927 11.0737 1.81927 11.5756 1.53927C11.8182 1.40318 12.0863 1.3189 12.3631 1.29177ZM6.62748 1.74052C6.73811 1.73365 6.85811 1.76302 6.96936 1.81865C7.47123 1.95865 7.89123 2.31927 8.22623 3.01927C8.36623 3.29927 8.50623 3.57615 8.56123 3.91115L9.12123 7.20865L8.70123 7.34865L6.21436 4.64052L6.07436 4.36052C5.84998 3.8599 5.71248 3.3849 5.76873 2.8799C5.79436 2.37927 5.99061 2.04302 6.32561 1.84802C6.41081 1.78014 6.51607 1.74235 6.62498 1.74052H6.62748ZM16.735 5.93302C16.8619 5.93302 16.9825 5.9399 17.1094 5.95302C17.585 6.01115 17.92 6.23302 18.0862 6.57115L18.2006 6.92865L18.145 7.20865C17.95 7.71365 17.53 8.10427 16.83 8.41052C16.5531 8.55052 16.2444 8.60552 15.9125 8.66115L12.475 9.08115L12.4194 8.88552L12.3644 8.80115L12.475 8.66115L15.2969 6.31365L15.6325 6.17677V6.17365C15.9807 6.01737 16.3577 5.93542 16.7394 5.93302H16.735ZM3.85061 6.08677C3.98373 6.09365 4.12061 6.1124 4.26061 6.14865V6.15177L5.01623 6.45427L7.47373 8.2449C7.24873 8.5249 7.11186 8.80427 7.02811 9.08177L3.00373 9.58615L2.72686 9.53115C2.22248 9.44615 1.88748 9.22115 1.66248 8.80427C1.43811 8.3849 1.44061 7.96865 1.60748 7.54865C1.80248 7.01802 2.16748 6.59802 2.69436 6.37365C3.07248 6.16552 3.44998 6.06365 3.84998 6.08677H3.85061ZM9.81748 8.32552C10.3225 8.32552 10.7975 8.5249 11.1031 8.83052C11.4975 9.22052 11.6631 9.64052 11.6631 10.1455C11.6631 10.6461 11.4975 11.1224 11.1031 11.4536C10.7425 11.8186 10.3225 12.0136 9.81748 12.0136C9.28998 12.0136 8.84436 11.8186 8.50936 11.4536C8.14436 11.1218 7.94936 10.6461 7.94936 10.1455C7.94936 9.64052 8.14436 9.22052 8.50936 8.83052C8.86594 8.50056 9.33544 8.31982 9.82123 8.32552H9.81748ZM16.8294 10.4774L17.1094 10.5068C17.5294 10.6468 17.9237 10.8974 18.1444 11.3143C18.4244 11.6236 18.5644 12.0436 18.5644 12.5193L18.48 13.0761C18.34 13.6355 18.0044 14.0518 17.5294 14.2768C17.0287 14.5568 16.5237 14.6118 15.9669 14.4168C15.6319 14.3349 15.4069 14.1949 15.2119 13.9711L12.2787 11.5393L12.4744 11.1224L12.5587 10.7843L15.7162 10.5068L16.8331 10.4774H16.8294ZM11.3019 12.5193L12.4744 13.7168L13.2 14.6118L13.34 14.8918C13.5906 15.3674 13.7306 15.8136 13.6719 16.3436C13.62 16.8455 13.4512 17.2093 13.115 17.3493C12.92 17.4893 12.695 17.4893 12.4744 17.4599C11.9437 17.323 11.5237 16.903 11.2175 16.233L10.8825 15.3111L10.4625 12.8793L10.9344 12.7136L11.2994 12.5186L11.3019 12.5193ZM8.28436 12.5743C8.56123 12.7143 8.84123 12.8543 9.14998 12.8799C9.20679 13.8972 9.29914 14.9122 9.42686 15.923V17.043L9.40123 17.3199C9.20311 17.8249 8.86811 18.2449 8.36623 18.4655C7.86561 18.7455 7.33436 18.8011 6.82936 18.6611C6.26936 18.5243 5.85248 18.1855 5.62873 17.7393C5.48873 17.4593 5.37436 17.1243 5.37436 16.7893L5.51748 16.1474C5.57311 15.8674 5.71248 15.5905 5.93748 15.3668L8.28436 12.5743Z" fill="white"/>
</g>
<defs>
<clipPath id="clip0">
<rect width="20" height="20" fill="white" transform="translate(0 0.00244141)"/>
</clipPath>
</defs>
</svg>
