<svg width="22" height="23" viewBox="0 0 22 23" fill="none" xmlns="http://www.w3.org/2000/svg">
<path d="M16.2314 11.2711C16.1464 11.1859 16.0454 11.1183 15.9342 11.0722C15.823 11.0261 15.7037 11.0024 15.5834 11.0024C15.463 11.0024 15.3438 11.0261 15.2326 11.0722C15.1213 11.1183 15.0203 11.1859 14.9353 11.2711L13.4741 12.7323C12.7967 12.5306 11.5326 12.0723 10.7314 11.2711C9.93027 10.47 9.47194 9.20588 9.27027 8.52846L10.7314 7.06729C10.8166 6.98224 10.8842 6.88122 10.9303 6.77001C10.9765 6.65881 11.0002 6.5396 11.0002 6.41921C11.0002 6.29882 10.9765 6.17961 10.9303 6.06841C10.8842 5.9572 10.8166 5.85618 10.7314 5.77113L7.06477 2.10446C6.97972 2.01926 6.8787 1.95167 6.76749 1.90555C6.65628 1.85943 6.53708 1.83569 6.41669 1.83569C6.2963 1.83569 6.17709 1.85943 6.06589 1.90555C5.95468 1.95167 5.85366 2.01926 5.7686 2.10446L3.2826 4.59046C2.93427 4.93879 2.7381 5.41729 2.74544 5.90588C2.76652 7.21121 3.1121 11.745 6.68527 15.3182C10.2584 18.8914 14.7923 19.236 16.0985 19.258H16.1242C16.6082 19.258 17.0656 19.0674 17.4121 18.7209L19.8981 16.2349C19.9833 16.1498 20.0509 16.0488 20.097 15.9376C20.1431 15.8264 20.1669 15.7072 20.1669 15.5868C20.1669 15.4664 20.1431 15.3472 20.097 15.236C20.0509 15.1248 19.9833 15.0238 19.8981 14.9387L16.2314 11.2711ZM16.115 17.4238C14.971 17.4045 11.0569 17.0975 7.98144 14.0211C4.89594 10.9356 4.5971 7.00771 4.57877 5.88663L6.41669 4.04871L8.78719 6.41921L7.60194 7.60446C7.49419 7.71212 7.41498 7.84494 7.37144 7.9909C7.32791 8.13686 7.32144 8.29137 7.3526 8.44046C7.3746 8.54588 7.91269 11.0456 9.43435 12.5673C10.956 14.089 13.4558 14.627 13.5612 14.649C13.7102 14.6811 13.8649 14.6751 14.0109 14.6317C14.157 14.5883 14.2899 14.5088 14.3972 14.4006L15.5834 13.2154L17.9539 15.5859L16.115 17.4238Z" fill="white"/>
</svg>
