<svg width="51" height="52" viewBox="0 0 51 52" fill="none" xmlns="http://www.w3.org/2000/svg">
<path d="M25.5 3.18994C13.1783 3.18994 3.1875 13.1808 3.1875 25.5024C3.1875 37.8241 13.1783 47.8149 25.5 47.8149C37.8217 47.8149 47.8125 37.8241 47.8125 25.5024C47.8125 13.1808 37.8217 3.18994 25.5 3.18994ZM36.2229 20.009C36.2379 20.2431 36.2379 20.4871 36.2379 20.7262C36.2379 28.0375 30.6697 36.4595 20.4946 36.4595C17.3569 36.4595 14.4483 35.548 11.9979 33.9792C12.4462 34.029 12.8745 34.0489 13.3327 34.0489C15.9226 34.0489 18.3032 33.1724 20.2008 31.6882C17.7703 31.6384 15.7283 30.0446 15.0311 27.8532C15.8827 27.9777 16.6497 27.9777 17.5263 27.7536C16.2748 27.4994 15.15 26.8197 14.3428 25.8301C13.5357 24.8405 13.0961 23.6019 13.0986 22.3249V22.2552C13.8308 22.6686 14.6924 22.9226 15.5938 22.9574C14.836 22.4524 14.2145 21.7681 13.7845 20.9654C13.3545 20.1626 13.1291 19.2662 13.1285 18.3555C13.1285 17.3245 13.3975 16.3832 13.8806 15.5664C15.2696 17.2764 17.003 18.6749 18.9679 19.6711C20.9329 20.6673 23.0855 21.2389 25.2858 21.3487C24.5039 17.5885 27.3129 14.5454 30.6896 14.5454C32.2834 14.5454 33.7178 15.2128 34.7288 16.2886C35.9789 16.0545 37.1742 15.5863 38.24 14.9588C37.8267 16.2388 36.9601 17.3195 35.8096 18.0019C36.9252 17.8823 38.001 17.5735 38.9971 17.1402C38.245 18.2459 37.3037 19.2271 36.2229 20.009Z" fill="white"/>
</svg>
