<svg width="46" height="47" viewBox="0 0 46 47" fill="none" xmlns="http://www.w3.org/2000/svg">
<g clip-path="url(#clip0)">
<path d="M22.9999 0.922363C10.8053 0.922363 0.919922 10.8078 0.919922 23.0024C0.919922 35.197 10.8053 45.0824 22.9999 45.0824C35.1945 45.0824 45.0799 35.197 45.0799 23.0024C45.0799 10.8078 35.1945 0.922363 22.9999 0.922363ZM31.4915 25.8337C31.4915 25.8337 33.4442 27.7611 33.9249 28.6558C33.9387 28.6742 33.9456 28.6926 33.9502 28.7018C34.1457 29.0307 34.1917 29.286 34.0951 29.4769C33.9341 29.7943 33.3821 29.9507 33.1935 29.9645H29.7435C29.5043 29.9645 29.0029 29.9024 28.3957 29.4838C27.9288 29.1572 27.4688 28.6213 27.0203 28.0992C26.351 27.3218 25.7714 26.6502 25.1872 26.6502C25.113 26.65 25.0393 26.6617 24.9687 26.6847C24.5271 26.8273 23.9613 27.4575 23.9613 29.1365C23.9613 29.6609 23.5473 29.9622 23.2552 29.9622H21.6751C21.1369 29.9622 18.3332 29.7736 15.8492 27.1539C12.8086 23.9454 10.0716 17.51 10.0486 17.4502C9.87612 17.0339 10.2326 16.8108 10.6213 16.8108H14.1058C14.5704 16.8108 14.7222 17.0937 14.828 17.3444C14.9522 17.6365 15.4076 18.798 16.1551 20.1044C17.3672 22.2342 18.1101 23.099 18.7058 23.099C18.8175 23.0976 18.9272 23.0692 19.0255 23.0162C19.8029 22.5838 19.658 19.8123 19.6235 19.2373C19.6235 19.1292 19.6212 17.9976 19.2233 17.4548C18.9381 17.0615 18.4528 16.912 18.1584 16.8568C18.2776 16.6923 18.4346 16.559 18.6161 16.4681C19.1497 16.2013 20.1111 16.1622 21.0656 16.1622H21.5969C22.6319 16.176 22.8987 16.2427 23.2736 16.337C24.0326 16.5187 24.0487 17.0086 23.982 18.6853C23.9613 19.1614 23.9406 19.6996 23.9406 20.3344C23.9406 20.4724 23.9337 20.6196 23.9337 20.776C23.9107 21.6293 23.8831 22.5976 24.4857 22.9955C24.5643 23.0447 24.6551 23.071 24.7479 23.0714C24.9572 23.0714 25.5874 23.0714 27.294 20.1435C27.8203 19.2011 28.2777 18.2218 28.6625 17.2133C28.697 17.1535 28.7982 16.9695 28.9178 16.8982C29.0061 16.8532 29.104 16.8303 29.203 16.8315H33.2993C33.7455 16.8315 34.0514 16.8982 34.1089 17.0707C34.2101 17.3444 34.0905 18.1793 32.2206 20.7116L31.3857 21.8133C29.6906 24.0351 29.6906 24.1478 31.4915 25.8337Z" fill="white"/>
</g>
<defs>
<clipPath id="clip0">
<rect width="46" height="46" fill="white" transform="translate(0 0.00244141)"/>
</clipPath>
</defs>
</svg>
