<svg width="19" height="20" viewBox="0 0 19 20" fill="none" xmlns="http://www.w3.org/2000/svg">
<path d="M9.08331 1.58569C4.94331 1.58569 1.58331 4.94569 1.58331 9.08569C1.58331 13.2257 4.94331 16.5857 9.08331 16.5857H12.8333V15.0857H9.08331C5.82831 15.0857 3.08331 12.3407 3.08331 9.08569C3.08331 5.83069 5.82831 3.08569 9.08331 3.08569C12.3383 3.08569 15.0833 5.83069 15.0833 9.08569V10.1582C15.0833 10.7507 14.5508 11.3357 13.9583 11.3357C13.3658 11.3357 12.8333 10.7507 12.8333 10.1582V9.08569C12.8333 7.01569 11.1533 5.33569 9.08331 5.33569C7.01331 5.33569 5.33331 7.01569 5.33331 9.08569C5.33331 11.1557 7.01331 12.8357 9.08331 12.8357C10.1183 12.8357 11.0633 12.4157 11.7383 11.7332C12.2258 12.4007 13.0658 12.8357 13.9583 12.8357C15.4358 12.8357 16.5833 11.6357 16.5833 10.1582V9.08569C16.5833 4.94569 13.2233 1.58569 9.08331 1.58569ZM9.08331 11.3357C7.83831 11.3357 6.83331 10.3307 6.83331 9.08569C6.83331 7.84069 7.83831 6.83569 9.08331 6.83569C10.3283 6.83569 11.3333 7.84069 11.3333 9.08569C11.3333 10.3307 10.3283 11.3357 9.08331 11.3357Z" fill="white"/>
</svg>
