<svg width="54" height="55" viewBox="0 0 54 55" fill="none" xmlns="http://www.w3.org/2000/svg">
<path d="M49.5316 26.9442C49.4911 14.5422 39.4223 4.50269 27.0181 4.50269C14.6093 4.50269 4.54281 14.5422 4.50231 26.9442L4.50006 26.8857V27.1377L4.50231 27.0859C4.54056 39.4902 14.6071 49.5342 27.0181 49.5342C39.4246 49.5342 49.4911 39.4947 49.5316 27.0927L49.5338 27.1512V27.0297V27.0184V26.8857L49.5316 26.9442ZM20.8823 37.2559C15.2371 37.2559 10.6493 32.6682 10.6493 27.0207C10.6493 21.3732 15.2371 16.7854 20.8823 16.7854C23.6498 16.7854 25.9628 17.8002 27.7358 19.4584L24.8221 22.2822C24.0908 21.5869 22.7993 20.7679 20.8823 20.7679C17.4961 20.7679 14.7331 23.5827 14.7331 27.0342C14.7331 30.4834 17.4983 33.2982 20.8823 33.2982C24.8018 33.2982 26.2463 30.5847 26.5118 28.9782H20.8778V25.1577H30.4516C30.6001 25.8012 30.7103 26.4042 30.7103 27.2547C30.7103 33.0979 26.7908 37.2559 20.8823 37.2559ZM44.4128 28.0422H40.3201V32.1349H37.2511V28.0422H33.1561V24.9732H37.2511V20.8782H40.3201V24.9732H44.4128V28.0422Z" fill="white"/>
</svg>
